<svg width="216" height="152" viewBox="0 0 216 152" fill="none" xmlns="http://www.w3.org/2000/svg">
<g clip-path="url(#clip0_14_3)">
<mask id="mask0_14_3" style="mask-type:alpha" maskUnits="userSpaceOnUse" x="0" y="0" width="216" height="152">
<path d="M211.486 23.7353C209.002 14.3922 201.684 7.0349 192.39 4.53793C175.545 0 108 0 108 0C108 0 40.455 0 23.6101 4.53793C14.3169 7.0349 6.99737 14.3922 4.51358 23.7353C0 40.6689 0 76 0 76C0 76 0 111.331 4.51358 128.266C6.99737 137.608 14.3169 144.965 23.6101 147.463C40.455 152 108 152 108 152C108 152 175.545 152 192.39 147.463C201.684 144.965 209.002 137.608 211.486 128.266C216 111.331 216 76 216 76C216 76 216 40.6689 211.486 23.7353Z" fill="#ED1D24"/>
</mask>
<g mask="url(#mask0_14_3)">
<g filter="url(#filter0_ii_14_3)">
<path d="M211.486 23.7353C209.002 14.3922 201.684 7.0349 192.39 4.53793C175.545 0 108 0 108 0C108 0 40.455 0 23.6101 4.53793C14.3169 7.0349 6.99737 14.3922 4.51358 23.7353C0 40.6689 0 76 0 76C0 76 0 111.331 4.51358 128.266C6.99737 137.608 14.3169 144.965 23.6101 147.463C40.455 152 108 152 108 152C108 152 175.545 152 192.39 147.463C201.684 144.965 209.002 137.608 211.486 128.266C216 111.331 216 76 216 76C216 76 216 40.6689 211.486 23.7353Z" fill="#FF0069"/>
</g>
<g filter="url(#filter1_ii_14_3)">
<path d="M211.486 23.7353C209.002 14.3922 201.684 7.0349 192.39 4.53793C175.545 0 108 0 108 0C108 0 40.455 0 23.6101 4.53793C14.3169 7.0349 6.99737 14.3922 4.51358 23.7353C0 40.6689 0 76 0 76C0 76 0 111.331 4.51358 128.266C6.99737 137.608 14.3169 144.965 23.6101 147.463C40.455 152 108 152 108 152C108 152 175.545 152 192.39 147.463C201.684 144.965 209.002 137.608 211.486 128.266C216 111.331 216 76 216 76C216 76 216 40.6689 211.486 23.7353Z" fill="black" fill-opacity="0.04" style="mix-blend-mode:color-burn"/>
</g>
<g style="mix-blend-mode:plus-lighter" filter="url(#filter2_f_14_3)">
<path d="M211.003 23.8641L211.003 23.8638C208.565 14.6925 201.38 7.4711 192.26 5.02081L192.26 5.02072C188.101 3.9003 180.766 3.05153 172.061 2.4131C163.37 1.77571 153.356 1.35054 143.863 1.06702C134.372 0.783524 125.405 0.641754 118.812 0.570877C115.515 0.535431 112.812 0.517715 110.933 0.50885C109.993 0.504425 109.26 0.502213 108.762 0.501114C108.659 0.500885 108.566 0.500702 108.484 0.500565C108.366 0.500351 108.269 0.500214 108.194 0.500137L108.049 0.500015L108.012 0.5H108.003H108.001C108 0.5 108 0.5 108 0C108 0.5 108 0.5 107.999 0.5H107.997H107.988L107.951 0.500015L107.806 0.500137C107.678 0.500275 107.488 0.500549 107.238 0.501114C106.74 0.502213 106.007 0.504425 105.067 0.50885C103.188 0.517715 100.485 0.535431 97.1883 0.570877C90.5948 0.641754 81.6286 0.783524 72.1368 1.06702C62.6442 1.35054 52.6299 1.77571 43.939 2.4131C35.234 3.05153 27.8992 3.9003 23.7402 5.02072L23.7399 5.02081C14.6203 7.4711 7.43489 14.6926 4.99679 23.8638L4.99671 23.8641C2.755 32.2743 1.62782 45.2923 1.06353 56.2435C0.781776 61.7116 0.640877 66.6517 0.570427 70.2248C0.535205 72.0112 0.517597 73.4557 0.508796 74.4532C0.504395 74.952 0.502196 75.339 0.501098 75.6012C0.500548 75.7323 0.500274 75.8321 0.500137 75.8992L0.500017 75.9748L0.500002 75.9938L0.5 75.9985L0.5 75.9997C0.5 75.9999 0.5 76 0 76C0.5 76 0.5 76.0001 0.5 76.0003L0.5 76.0015L0.500002 76.0062L0.500017 76.0252L0.500137 76.1008C0.500274 76.1679 0.500548 76.2677 0.501098 76.3988C0.502196 76.661 0.504395 77.048 0.508796 77.5468C0.517597 78.5443 0.535205 79.9887 0.570427 81.7752C0.640877 85.3482 0.781776 90.2883 1.06353 95.7565C1.62782 106.708 2.755 119.726 4.99671 128.137L4.99679 128.137C7.43488 137.307 14.6203 144.529 23.7399 146.98L23.7402 146.98C27.8992 148.1 35.234 148.949 43.939 149.587C52.6299 150.225 62.6442 150.65 72.1368 150.933C81.6286 151.217 90.5948 151.358 97.1883 151.429C100.485 151.465 103.188 151.482 105.067 151.491C106.007 151.496 106.74 151.498 107.238 151.499C107.488 151.499 107.678 151.5 107.806 151.5L107.951 151.5L107.988 151.5L107.997 151.5L107.999 151.5C108 151.5 108 151.5 108 152C108 151.5 108 151.5 108.001 151.5L108.003 151.5L108.012 151.5L108.049 151.5L108.194 151.5C108.322 151.5 108.512 151.499 108.762 151.499C109.26 151.498 109.993 151.496 110.933 151.491C112.812 151.482 115.515 151.465 118.812 151.429C125.405 151.358 134.372 151.217 143.863 150.933C153.356 150.65 163.37 150.225 172.061 149.587C180.766 148.949 188.101 148.1 192.26 146.98L192.26 146.98C201.38 144.529 208.565 137.307 211.003 128.137L211.003 128.137C213.245 119.726 214.372 106.708 214.936 95.7565C215.218 90.2883 215.359 85.3482 215.43 81.7752C215.465 79.9887 215.482 78.5443 215.491 77.5468C215.496 77.048 215.498 76.661 215.499 76.3988L215.499 76.2664C215.5 76.1984 215.5 76.1431 215.5 76.1008L215.5 76.0252L215.5 76.0062V76.0015V76.0003C215.5 76.0001 215.5 76 216 76C215.5 76 215.5 75.9999 215.5 75.9997V75.9985V75.9938L215.5 75.9748L215.5 75.8992C215.5 75.8321 215.499 75.7323 215.499 75.6012C215.498 75.339 215.496 74.952 215.491 74.4532C215.482 73.4557 215.465 72.0112 215.43 70.2248C215.359 66.6517 215.218 61.7116 214.936 56.2435C214.372 45.2923 213.245 32.2743 211.003 23.8641Z" stroke="url(#paint0_linear_14_3)"/>
<path d="M211.003 23.8641L211.003 23.8638C208.565 14.6925 201.38 7.4711 192.26 5.02081L192.26 5.02072C188.101 3.9003 180.766 3.05153 172.061 2.4131C163.37 1.77571 153.356 1.35054 143.863 1.06702C134.372 0.783524 125.405 0.641754 118.812 0.570877C115.515 0.535431 112.812 0.517715 110.933 0.50885C109.993 0.504425 109.26 0.502213 108.762 0.501114C108.659 0.500885 108.566 0.500702 108.484 0.500565C108.366 0.500351 108.269 0.500214 108.194 0.500137L108.049 0.500015L108.012 0.5H108.003H108.001C108 0.5 108 0.5 108 0C108 0.5 108 0.5 107.999 0.5H107.997H107.988L107.951 0.500015L107.806 0.500137C107.678 0.500275 107.488 0.500549 107.238 0.501114C106.74 0.502213 106.007 0.504425 105.067 0.50885C103.188 0.517715 100.485 0.535431 97.1883 0.570877C90.5948 0.641754 81.6286 0.783524 72.1368 1.06702C62.6442 1.35054 52.6299 1.77571 43.939 2.4131C35.234 3.05153 27.8992 3.9003 23.7402 5.02072L23.7399 5.02081C14.6203 7.4711 7.43489 14.6926 4.99679 23.8638L4.99671 23.8641C2.755 32.2743 1.62782 45.2923 1.06353 56.2435C0.781776 61.7116 0.640877 66.6517 0.570427 70.2248C0.535205 72.0112 0.517597 73.4557 0.508796 74.4532C0.504395 74.952 0.502196 75.339 0.501098 75.6012C0.500548 75.7323 0.500274 75.8321 0.500137 75.8992L0.500017 75.9748L0.500002 75.9938L0.5 75.9985L0.5 75.9997C0.5 75.9999 0.5 76 0 76C0.5 76 0.5 76.0001 0.5 76.0003L0.5 76.0015L0.500002 76.0062L0.500017 76.0252L0.500137 76.1008C0.500274 76.1679 0.500548 76.2677 0.501098 76.3988C0.502196 76.661 0.504395 77.048 0.508796 77.5468C0.517597 78.5443 0.535205 79.9887 0.570427 81.7752C0.640877 85.3482 0.781776 90.2883 1.06353 95.7565C1.62782 106.708 2.755 119.726 4.99671 128.137L4.99679 128.137C7.43488 137.307 14.6203 144.529 23.7399 146.98L23.7402 146.98C27.8992 148.1 35.234 148.949 43.939 149.587C52.6299 150.225 62.6442 150.65 72.1368 150.933C81.6286 151.217 90.5948 151.358 97.1883 151.429C100.485 151.465 103.188 151.482 105.067 151.491C106.007 151.496 106.74 151.498 107.238 151.499C107.488 151.499 107.678 151.5 107.806 151.5L107.951 151.5L107.988 151.5L107.997 151.5L107.999 151.5C108 151.5 108 151.5 108 152C108 151.5 108 151.5 108.001 151.5L108.003 151.5L108.012 151.5L108.049 151.5L108.194 151.5C108.322 151.5 108.512 151.499 108.762 151.499C109.26 151.498 109.993 151.496 110.933 151.491C112.812 151.482 115.515 151.465 118.812 151.429C125.405 151.358 134.372 151.217 143.863 150.933C153.356 150.65 163.37 150.225 172.061 149.587C180.766 148.949 188.101 148.1 192.26 146.98L192.26 146.98C201.38 144.529 208.565 137.307 211.003 128.137L211.003 128.137C213.245 119.726 214.372 106.708 214.936 95.7565C215.218 90.2883 215.359 85.3482 215.43 81.7752C215.465 79.9887 215.482 78.5443 215.491 77.5468C215.496 77.048 215.498 76.661 215.499 76.3988L215.499 76.2664C215.5 76.1984 215.5 76.1431 215.5 76.1008L215.5 76.0252L215.5 76.0062V76.0015V76.0003C215.5 76.0001 215.5 76 216 76C215.5 76 215.5 75.9999 215.5 75.9997V75.9985V75.9938L215.5 75.9748L215.5 75.8992C215.5 75.8321 215.499 75.7323 215.499 75.6012C215.498 75.339 215.496 74.952 215.491 74.4532C215.482 73.4557 215.465 72.0112 215.43 70.2248C215.359 66.6517 215.218 61.7116 214.936 56.2435C214.372 45.2923 213.245 32.2743 211.003 23.8641Z" stroke="url(#paint1_linear_14_3)"/>
</g>
<g style="mix-blend-mode:plus-lighter" filter="url(#filter3_f_14_3)">
<path d="M210.52 23.9929L210.52 23.9922C208.127 14.9929 201.077 7.9073 192.13 5.50369L192.13 5.50351C188.023 4.39716 180.733 3.55048 172.024 2.91176C163.344 2.27512 153.338 1.85022 143.848 1.5668C134.361 1.28342 125.398 1.14171 118.806 1.07085C115.511 1.03542 112.809 1.0177 110.931 1.00885C109.991 1.00443 109.259 1.00221 108.76 1.0011C108.511 1.00055 108.321 1.00027 108.193 1.00014L108.048 1.00002L108.012 1H108.003H108.001C108 1 108 1 108 0C108 1 108 1 107.999 1H107.997H107.988L107.952 1.00002L107.807 1.00014C107.679 1.00027 107.489 1.00055 107.24 1.0011C106.742 1.00221 106.009 1.00443 105.069 1.00885C103.191 1.0177 100.489 1.03542 97.1936 1.07085C90.6022 1.14171 81.6394 1.28342 72.1517 1.5668C62.6625 1.85022 52.6562 2.27512 43.9756 2.91176C35.2667 3.55048 27.9771 4.39716 23.8703 5.50351L23.8696 5.50368C14.9237 7.9073 7.87241 14.9929 5.48001 23.9922L5.47984 23.9928C3.25321 32.3465 2.12725 45.3163 1.56287 56.2692C1.28145 61.7308 1.14071 66.6654 1.07033 70.2346C1.03515 72.0191 1.01756 73.4617 1.00878 74.4576C1.00438 74.9556 1.00219 75.3418 1.00109 75.6033C1.00055 75.734 1.00027 75.8335 1.00014 75.9002L1.00002 75.9753L1 75.9941L1 75.9986L1 75.9997C1 75.9999 1 76 0 76C1 76 1 76.0001 1 76.0003L1 76.0014L1 76.0059L1.00002 76.0247L1.00014 76.0998C1.00027 76.1665 1.00055 76.266 1.00109 76.3967C1.00219 76.6582 1.00438 77.0444 1.00878 77.5424C1.01756 78.5383 1.03515 79.9809 1.07033 81.7653C1.14071 85.3346 1.28145 90.2691 1.56287 95.7307C2.12725 106.684 3.25321 119.654 5.47985 128.008L5.48 128.009C7.87239 137.007 14.9237 144.093 23.8697 146.497L23.8702 146.497C27.977 147.604 35.2667 148.45 43.9756 149.089C52.6562 149.725 62.6625 150.15 72.1517 150.433C81.6394 150.717 90.6022 150.858 97.1936 150.929C100.489 150.965 103.191 150.982 105.069 150.991C106.009 150.996 106.742 150.998 107.24 150.999C107.489 150.999 107.679 151 107.807 151L107.952 151L107.988 151L107.997 151L107.999 151C108 151 108 151 108 152C108 151 108 151 108.001 151L108.003 151L108.012 151L108.048 151L108.193 151C108.321 151 108.511 150.999 108.76 150.999C109.259 150.998 109.991 150.996 110.931 150.991C112.809 150.982 115.511 150.965 118.806 150.929C125.398 150.858 134.361 150.717 143.848 150.433C153.338 150.15 163.344 149.725 172.025 149.089C180.733 148.45 188.023 147.604 192.13 146.497L192.13 146.497C201.077 144.093 208.127 137.007 210.52 128.009L210.52 128.008C212.747 119.654 213.873 106.684 214.437 95.7307C214.719 90.2691 214.859 85.3346 214.93 81.7653C214.965 79.9809 214.982 78.5383 214.991 77.5424C214.996 77.0444 214.998 76.6582 214.999 76.3967C214.999 76.266 215 76.1665 215 76.0998L215 76.0247L215 76.0059V76.0014V76.0003C215 76.0002 215 76.0002 215.007 76.0002C215.036 76 215.19 76 216 76C215 76 215 75.9999 215 75.9997V75.9986V75.9941L215 75.9753L215 75.9002C215 75.8335 214.999 75.734 214.999 75.6033C214.998 75.3418 214.996 74.9556 214.991 74.4576C214.982 73.4617 214.965 72.0191 214.93 70.2346C214.859 66.6654 214.719 61.7308 214.437 56.2692C213.873 45.3163 212.747 32.3466 210.52 23.9929Z" stroke="url(#paint2_linear_14_3)" stroke-width="2"/>
</g>
<g style="mix-blend-mode:plus-lighter" filter="url(#filter4_f_14_3)">
<path d="M209.554 24.2504L209.553 24.2492C207.252 15.5935 200.47 8.77971 191.871 6.46944L191.869 6.46909C187.867 5.39087 180.668 4.54837 171.951 3.90909C163.291 3.27394 153.301 2.84958 143.819 2.56635C134.339 2.28322 125.383 2.1416 118.796 2.07079C115.502 2.03539 112.802 2.01768 110.926 2.00883C109.988 2.00443 109.256 2.00221 108.758 2.0011C108.51 2.00055 108.32 2.00027 108.192 2.00014L108.048 2.00002L108.012 2H108.003H108.001C108 2 108 2 108 0C108 2 108 2 107.999 2H107.997H107.988L107.952 2.00002L107.808 2.00014C107.68 2.00027 107.49 2.00055 107.242 2.0011C106.744 2.00221 106.012 2.00443 105.074 2.00883C103.198 2.01768 100.498 2.03539 97.2044 2.07079C90.6171 2.1416 81.661 2.28322 72.1816 2.56635C62.699 2.84958 52.7089 3.27394 44.0488 3.90909C35.3321 4.54837 28.1328 5.39087 24.1304 6.46909L24.1291 6.46944C15.5306 8.77972 8.74745 15.5936 6.44644 24.2491L6.44611 24.2504C4.24962 32.491 3.1261 45.3643 2.56155 56.3207C2.28081 61.769 2.14036 66.6927 2.07014 70.2544C2.03503 72.0348 2.0175 73.4737 2.00874 74.4664C2.00436 74.9628 2.00217 75.3475 2.00108 75.6075C2.00054 75.7374 2.00027 75.8363 2.00013 75.9022L2.00002 75.9763L2 75.9946L2 75.9989L2 75.9998C2 76 2 76 0 76C2 76 2 76 2 76.0002L2 76.0011L2 76.0054L2.00002 76.0237L2.00013 76.0978C2.00027 76.1637 2.00054 76.2625 2.00108 76.3925C2.00217 76.6525 2.00436 77.0372 2.00874 77.5335C2.0175 78.5263 2.03503 79.9652 2.07014 81.7456C2.14036 85.3072 2.28081 90.2309 2.56155 95.6793C3.1261 106.636 4.24962 119.509 6.44612 127.751L6.44643 127.752C8.7474 136.406 15.5306 143.22 24.1293 145.532L24.1303 145.532C28.1327 146.61 35.3321 147.452 44.0487 148.091C52.7089 148.726 62.699 149.151 72.1816 149.434C81.661 149.717 90.6171 149.858 97.2044 149.929C100.498 149.965 103.198 149.982 105.074 149.991C106.012 149.996 106.744 149.998 107.242 149.999C107.49 149.999 107.68 150 107.808 150L107.952 150L107.988 150L107.997 150L107.999 150C108 150 108 150 108 152C108 150 108 150 108.001 150L108.003 150L108.012 150L108.048 150L108.192 150C108.32 150 108.51 149.999 108.758 149.999C109.256 149.998 109.988 149.996 110.926 149.991C112.802 149.982 115.502 149.965 118.796 149.929C125.383 149.858 134.339 149.717 143.819 149.434C153.301 149.151 163.291 148.726 171.951 148.091C180.668 147.452 187.867 146.61 191.87 145.532L191.871 145.532C200.47 143.22 207.252 136.406 209.553 127.752L209.554 127.751C211.75 119.509 212.874 106.636 213.438 95.6793C213.719 90.2309 213.86 85.3072 213.93 81.7456C213.965 79.9652 213.982 78.5263 213.991 77.5335C213.996 77.0372 213.998 76.6525 213.999 76.3925C213.999 76.2625 214 76.1637 214 76.0978L214 76.0237L214 76.0054V76.0011V76.0002C214 76 214 76 216 76C214 76 214 76 214 75.9998V75.9989V75.9946L214 75.9763L214 75.9022C214 75.8363 213.999 75.7374 213.999 75.6075C213.998 75.3475 213.996 74.9628 213.991 74.4664C213.982 73.4737 213.965 72.0348 213.93 70.2544C213.86 66.6927 213.719 61.769 213.438 56.3207C212.874 45.3643 211.75 32.491 209.554 24.2504Z" stroke="url(#paint3_linear_14_3)" stroke-width="4"/>
</g>
<path d="M211.486 23.7353C209.002 14.3922 201.684 7.0349 192.39 4.53793C175.545 0 108 0 108 0C108 0 40.455 0 23.6101 4.53793C14.3169 7.0349 6.99737 14.3922 4.51358 23.7353C0 40.6689 0 76 0 76C0 76 0 111.331 4.51358 128.266C6.99737 137.608 14.3169 144.965 23.6101 147.463C40.455 152 108 152 108 152C108 152 175.545 152 192.39 147.463C201.684 144.965 209.002 137.608 211.486 128.266C216 111.331 216 76 216 76C216 76 216 40.6689 211.486 23.7353Z" fill="url(#paint4_linear_14_3)" style="mix-blend-mode:overlay"/>
<g style="mix-blend-mode:color-dodge" opacity="0.16" filter="url(#filter5_f_14_3)">
<path d="M203.82 29.2329C201.52 20.8733 194.744 14.2904 186.139 12.0563C170.542 7.99602 108 17.996 108 17.996C108 17.996 45.4583 7.99602 29.8612 12.0563C21.2564 14.2904 14.479 20.8733 12.1792 29.2329C8 44.384 8 75.996 8 75.996C8 75.996 8 107.608 12.1792 122.76C14.479 131.119 21.2564 137.702 29.8612 139.937C45.4583 143.996 108 133.996 108 133.996C108 133.996 170.542 143.996 186.139 139.937C194.744 137.702 201.52 131.119 203.82 122.76C208 107.608 208 75.996 208 75.996C208 75.996 208 44.384 203.82 29.2329Z" fill="url(#paint5_linear_14_3)"/>
</g>
<g style="mix-blend-mode:overlay" filter="url(#filter6_f_14_3)">
<circle cx="108" cy="76" r="48" fill="white"/>
</g>
<g filter="url(#filter7_dddddd_14_3)">
<path d="M88.1204 28.3362C83.0132 28.5771 79.5255 29.3922 76.4766 30.5903C73.321 31.82 70.6465 33.4703 67.9854 36.141C65.3242 38.8117 63.6855 41.4882 62.4644 44.6485C61.2826 47.7042 60.482 51.1947 60.2564 56.3048C60.0308 61.4149 59.9809 63.0575 60.0058 76.0924C60.0308 89.1272 60.0884 90.7611 60.3361 95.8818C60.5799 100.988 61.3921 104.475 62.5902 107.525C63.8218 110.68 65.4702 113.354 68.1418 116.016C70.8135 118.678 73.4881 120.313 76.6561 121.536C79.7089 122.716 83.2004 123.52 88.3095 123.744C93.4186 123.968 95.0631 124.019 108.094 123.994C121.125 123.969 122.766 123.912 127.886 123.669C133.005 123.426 136.474 122.608 139.525 121.416C142.68 120.181 145.356 118.536 148.016 115.863C150.676 113.191 152.314 110.512 153.534 107.35C154.717 104.297 155.52 100.806 155.742 95.7004C155.966 90.5768 156.018 88.941 155.993 75.908C155.968 62.8751 155.91 61.2411 155.667 56.1224C155.424 51.0037 154.611 47.5275 153.414 44.4757C152.18 41.3202 150.534 38.6485 147.863 35.9845C145.192 33.3205 142.512 31.6837 139.351 30.4664C136.296 29.2847 132.806 28.4792 127.697 28.2584C122.588 28.0376 120.944 27.981 107.908 28.0059C94.8721 28.0309 93.2401 28.0866 88.1204 28.3362ZM88.681 115.109C84.001 114.905 81.4599 114.128 79.7665 113.477C77.5239 112.613 75.9265 111.568 74.2388 109.897C72.5511 108.225 71.5143 106.622 70.6388 104.385C69.9812 102.691 69.1892 100.153 68.9703 95.4728C68.7322 90.4146 68.6823 88.8959 68.6545 76.0808C68.6266 63.2658 68.6756 61.749 68.8974 56.6888C69.097 52.0127 69.8794 49.4687 70.5294 47.7762C71.3934 45.5308 72.434 43.9362 74.1092 42.2495C75.7844 40.5627 77.3828 39.524 79.6225 38.6485C81.314 37.988 83.8522 37.2027 88.5303 36.98C93.5924 36.74 95.1092 36.692 107.922 36.6642C120.735 36.6363 122.256 36.6843 127.32 36.9071C131.996 37.1106 134.541 37.8853 136.232 38.5391C138.475 39.4031 140.072 40.4408 141.758 42.1189C143.445 43.797 144.485 45.3896 145.36 47.6341C146.022 49.3208 146.807 51.8581 147.028 56.5391C147.269 61.6012 147.324 63.1189 147.347 75.9311C147.37 88.7432 147.325 90.2648 147.103 95.3231C146.898 100.003 146.123 102.545 145.471 104.241C144.607 106.482 143.565 108.081 141.889 109.766C140.213 111.452 138.616 112.491 136.376 113.366C134.686 114.026 132.145 114.813 127.471 115.036C122.409 115.274 120.892 115.324 108.074 115.352C95.2561 115.379 93.7441 115.328 88.682 115.109M127.812 50.3461C127.813 51.4854 128.153 52.5986 128.788 53.5448C129.422 54.491 130.323 55.2277 131.377 55.6619C132.43 56.096 133.588 56.2081 134.705 55.9838C135.822 55.7595 136.848 55.209 137.652 54.402C138.456 53.5949 139.003 52.5674 139.223 51.4496C139.443 50.3318 139.327 49.1738 138.889 48.122C138.451 47.0703 137.711 46.1721 136.762 45.541C135.814 44.9099 134.699 44.5742 133.56 44.5765C132.033 44.5796 130.569 45.1891 129.491 46.271C128.413 47.353 127.809 48.8188 127.812 50.3461ZM83.354 76.0482C83.3809 89.661 94.4362 100.671 108.046 100.645C121.656 100.619 132.674 89.565 132.648 75.9522C132.622 62.3394 121.564 51.3263 107.952 51.3531C94.3402 51.38 83.3281 62.4373 83.354 76.0482ZM91.9998 76.0309C91.9935 72.8664 92.9258 69.771 94.6787 67.1363C96.4316 64.5016 98.9265 62.4458 101.848 61.229C104.769 60.0122 107.986 59.689 111.09 60.3002C114.195 60.9115 117.049 62.4297 119.292 64.6629C121.534 66.8962 123.063 69.7442 123.687 72.8467C124.31 75.9492 124 79.167 122.795 82.093C121.589 85.0191 119.543 87.5221 116.916 89.2854C114.288 91.0487 111.196 91.9933 108.032 91.9995C105.93 92.004 103.849 91.5944 101.906 90.7942C99.963 89.9941 98.1967 88.819 96.708 87.3361C95.2192 85.8533 94.0372 84.0916 93.2293 82.1519C92.4215 80.2121 92.0037 78.1322 91.9998 76.0309Z" fill="white"/>
</g>
</g>
</g>
<defs>
<filter id="filter0_ii_14_3" x="-8" y="-8" width="232" height="168" filterUnits="userSpaceOnUse" color-interpolation-filters="sRGB">
<feFlood flood-opacity="0" result="BackgroundImageFix"/>
<feBlend mode="normal" in="SourceGraphic" in2="BackgroundImageFix" result="shape"/>
<feColorMatrix in="SourceAlpha" type="matrix" values="0 0 0 0 0 0 0 0 0 0 0 0 0 0 0 0 0 0 127 0" result="hardAlpha"/>
<feOffset dx="8" dy="8"/>
<feGaussianBlur stdDeviation="8"/>
<feComposite in2="hardAlpha" operator="arithmetic" k2="-1" k3="1"/>
<feColorMatrix type="matrix" values="0 0 0 0 0 0 0 0 0 0 0 0 0 0 0 0 0 0 0.16 0"/>
<feBlend mode="normal" in2="shape" result="effect1_innerShadow_14_3"/>
<feColorMatrix in="SourceAlpha" type="matrix" values="0 0 0 0 0 0 0 0 0 0 0 0 0 0 0 0 0 0 127 0" result="hardAlpha"/>
<feOffset dx="-8" dy="-8"/>
<feGaussianBlur stdDeviation="8"/>
<feComposite in2="hardAlpha" operator="arithmetic" k2="-1" k3="1"/>
<feColorMatrix type="matrix" values="0 0 0 0 0 0 0 0 0 0 0 0 0 0 0 0 0 0 0.32 0"/>
<feBlend mode="normal" in2="effect1_innerShadow_14_3" result="effect2_innerShadow_14_3"/>
</filter>
<filter id="filter1_ii_14_3" x="-8" y="-8" width="232" height="168" filterUnits="userSpaceOnUse" color-interpolation-filters="sRGB">
<feFlood flood-opacity="0" result="BackgroundImageFix"/>
<feBlend mode="normal" in="SourceGraphic" in2="BackgroundImageFix" result="shape"/>
<feColorMatrix in="SourceAlpha" type="matrix" values="0 0 0 0 0 0 0 0 0 0 0 0 0 0 0 0 0 0 127 0" result="hardAlpha"/>
<feOffset dx="8" dy="8"/>
<feGaussianBlur stdDeviation="8"/>
<feComposite in2="hardAlpha" operator="arithmetic" k2="-1" k3="1"/>
<feColorMatrix type="matrix" values="0 0 0 0 0 0 0 0 0 0 0 0 0 0 0 0 0 0 0.16 0"/>
<feBlend mode="normal" in2="shape" result="effect1_innerShadow_14_3"/>
<feColorMatrix in="SourceAlpha" type="matrix" values="0 0 0 0 0 0 0 0 0 0 0 0 0 0 0 0 0 0 127 0" result="hardAlpha"/>
<feOffset dx="-8" dy="-8"/>
<feGaussianBlur stdDeviation="8"/>
<feComposite in2="hardAlpha" operator="arithmetic" k2="-1" k3="1"/>
<feColorMatrix type="matrix" values="0 0 0 0 0 0 0 0 0 0 0 0 0 0 0 0 0 0 0.32 0"/>
<feBlend mode="normal" in2="effect1_innerShadow_14_3" result="effect2_innerShadow_14_3"/>
</filter>
<filter id="filter2_f_14_3" x="-6" y="-6" width="228" height="164" filterUnits="userSpaceOnUse" color-interpolation-filters="sRGB">
<feFlood flood-opacity="0" result="BackgroundImageFix"/>
<feBlend mode="normal" in="SourceGraphic" in2="BackgroundImageFix" result="shape"/>
<feGaussianBlur stdDeviation="3" result="effect1_foregroundBlur_14_3"/>
</filter>
<filter id="filter3_f_14_3" x="-4" y="-4" width="224" height="160" filterUnits="userSpaceOnUse" color-interpolation-filters="sRGB">
<feFlood flood-opacity="0" result="BackgroundImageFix"/>
<feBlend mode="normal" in="SourceGraphic" in2="BackgroundImageFix" result="shape"/>
<feGaussianBlur stdDeviation="2" result="effect1_foregroundBlur_14_3"/>
</filter>
<filter id="filter4_f_14_3" x="-8" y="-8" width="232" height="168" filterUnits="userSpaceOnUse" color-interpolation-filters="sRGB">
<feFlood flood-opacity="0" result="BackgroundImageFix"/>
<feBlend mode="normal" in="SourceGraphic" in2="BackgroundImageFix" result="shape"/>
<feGaussianBlur stdDeviation="4" result="effect1_foregroundBlur_14_3"/>
</filter>
<filter id="filter5_f_14_3" x="-8" y="-4.9137" width="232" height="161.82" filterUnits="userSpaceOnUse" color-interpolation-filters="sRGB">
<feFlood flood-opacity="0" result="BackgroundImageFix"/>
<feBlend mode="normal" in="SourceGraphic" in2="BackgroundImageFix" result="shape"/>
<feGaussianBlur stdDeviation="8" result="effect1_foregroundBlur_14_3"/>
</filter>
<filter id="filter6_f_14_3" x="-36" y="-68" width="288" height="288" filterUnits="userSpaceOnUse" color-interpolation-filters="sRGB">
<feFlood flood-opacity="0" result="BackgroundImageFix"/>
<feBlend mode="normal" in="SourceGraphic" in2="BackgroundImageFix" result="shape"/>
<feGaussianBlur stdDeviation="48" result="effect1_foregroundBlur_14_3"/>
</filter>
<filter id="filter7_dddddd_14_3" x="28" y="12" width="160" height="160" filterUnits="userSpaceOnUse" color-interpolation-filters="sRGB">
<feFlood flood-opacity="0" result="BackgroundImageFix"/>
<feColorMatrix in="SourceAlpha" type="matrix" values="0 0 0 0 0 0 0 0 0 0 0 0 0 0 0 0 0 0 127 0" result="hardAlpha"/>
<feOffset dx="4" dy="4"/>
<feGaussianBlur stdDeviation="4"/>
<feComposite in2="hardAlpha" operator="out"/>
<feColorMatrix type="matrix" values="0 0 0 0 0 0 0 0 0 0 0 0 0 0 0 0 0 0 0.16 0"/>
<feBlend mode="color-burn" in2="BackgroundImageFix" result="effect1_dropShadow_14_3"/>
<feColorMatrix in="SourceAlpha" type="matrix" values="0 0 0 0 0 0 0 0 0 0 0 0 0 0 0 0 0 0 127 0" result="hardAlpha"/>
<feOffset dx="4" dy="4"/>
<feGaussianBlur stdDeviation="4"/>
<feComposite in2="hardAlpha" operator="out"/>
<feColorMatrix type="matrix" values="0 0 0 0 0 0 0 0 0 0 0 0 0 0 0 0 0 0 0.04 0"/>
<feBlend mode="color-burn" in2="effect1_dropShadow_14_3" result="effect2_dropShadow_14_3"/>
<feColorMatrix in="SourceAlpha" type="matrix" values="0 0 0 0 0 0 0 0 0 0 0 0 0 0 0 0 0 0 127 0" result="hardAlpha"/>
<feOffset dx="4" dy="4"/>
<feGaussianBlur stdDeviation="4"/>
<feComposite in2="hardAlpha" operator="out"/>
<feColorMatrix type="matrix" values="0 0 0 0 0 0 0 0 0 0 0 0 0 0 0 0 0 0 0.04 0"/>
<feBlend mode="color-burn" in2="effect2_dropShadow_14_3" result="effect3_dropShadow_14_3"/>
<feColorMatrix in="SourceAlpha" type="matrix" values="0 0 0 0 0 0 0 0 0 0 0 0 0 0 0 0 0 0 127 0" result="hardAlpha"/>
<feOffset dy="16"/>
<feGaussianBlur stdDeviation="16"/>
<feComposite in2="hardAlpha" operator="out"/>
<feColorMatrix type="matrix" values="0 0 0 0 0 0 0 0 0 0 0 0 0 0 0 0 0 0 0.16 0"/>
<feBlend mode="multiply" in2="effect3_dropShadow_14_3" result="effect4_dropShadow_14_3"/>
<feColorMatrix in="SourceAlpha" type="matrix" values="0 0 0 0 0 0 0 0 0 0 0 0 0 0 0 0 0 0 127 0" result="hardAlpha"/>
<feOffset dy="16"/>
<feGaussianBlur stdDeviation="16"/>
<feComposite in2="hardAlpha" operator="out"/>
<feColorMatrix type="matrix" values="0 0 0 0 0 0 0 0 0 0 0 0 0 0 0 0 0 0 0.04 0"/>
<feBlend mode="multiply" in2="effect4_dropShadow_14_3" result="effect5_dropShadow_14_3"/>
<feColorMatrix in="SourceAlpha" type="matrix" values="0 0 0 0 0 0 0 0 0 0 0 0 0 0 0 0 0 0 127 0" result="hardAlpha"/>
<feOffset dy="16"/>
<feGaussianBlur stdDeviation="16"/>
<feComposite in2="hardAlpha" operator="out"/>
<feColorMatrix type="matrix" values="0 0 0 0 0 0 0 0 0 0 0 0 0 0 0 0 0 0 0.04 0"/>
<feBlend mode="multiply" in2="effect5_dropShadow_14_3" result="effect6_dropShadow_14_3"/>
<feBlend mode="normal" in="SourceGraphic" in2="effect6_dropShadow_14_3" result="shape"/>
</filter>
<linearGradient id="paint0_linear_14_3" x1="216" y1="36" x2="177.5" y2="39.5" gradientUnits="userSpaceOnUse">
<stop stop-color="white"/>
<stop offset="0.5" stop-color="white" stop-opacity="0"/>
<stop offset="0.75" stop-color="white" stop-opacity="0"/>
<stop offset="1" stop-color="white" stop-opacity="0"/>
</linearGradient>
<linearGradient id="paint1_linear_14_3" x1="216" y1="36" x2="177.5" y2="39.5" gradientUnits="userSpaceOnUse">
<stop stop-color="white"/>
<stop offset="0.5" stop-color="white" stop-opacity="0"/>
<stop offset="0.75" stop-color="white" stop-opacity="0"/>
<stop offset="1" stop-color="white" stop-opacity="0"/>
</linearGradient>
<linearGradient id="paint2_linear_14_3" x1="209" y1="-8.00002" x2="177.5" y2="39.5" gradientUnits="userSpaceOnUse">
<stop stop-color="white"/>
<stop offset="0.5" stop-color="white" stop-opacity="0"/>
<stop offset="0.75" stop-color="white" stop-opacity="0"/>
<stop offset="1" stop-color="white" stop-opacity="0"/>
</linearGradient>
<linearGradient id="paint3_linear_14_3" x1="210.06" y1="-23.9577" x2="173.5" y2="76" gradientUnits="userSpaceOnUse">
<stop stop-color="white"/>
<stop offset="0.5" stop-color="white" stop-opacity="0"/>
<stop offset="0.75" stop-color="white" stop-opacity="0"/>
<stop offset="1" stop-color="white" stop-opacity="0"/>
</linearGradient>
<linearGradient id="paint4_linear_14_3" x1="-1.60933e-06" y1="2.28694e-06" x2="108" y2="76" gradientUnits="userSpaceOnUse">
<stop stop-color="white"/>
<stop offset="1" stop-color="white" stop-opacity="0"/>
</linearGradient>
<linearGradient id="paint5_linear_14_3" x1="8" y1="75.996" x2="208" y2="75.996" gradientUnits="userSpaceOnUse">
<stop stop-color="white"/>
<stop offset="1" stop-color="white" stop-opacity="0"/>
</linearGradient>
<clipPath id="clip0_14_3">
<rect width="216" height="152" fill="white"/>
</clipPath>
</defs>
</svg>
